<svg width="729" height="398" viewBox="0 0 729 398" fill="none" xmlns="http://www.w3.org/2000/svg">
    <g>
        <path d="M5 61.8783C18.7699 39.4138 67.7489 -4.11331 153.506 1.49382C260.702 8.50273 252.335 112.558 391.952 113.636C531.568 114.715 505.423 13.355 603.729 14.4333C702.036 15.5116 723.998 101.775 723.998 132.507C723.998 163.238 726.09 269.989 596.931 236.562C467.773 203.135 480.846 165.395 358.486 184.265C236.125 203.135 203.705 141.133 144.093 141.133C84.4819 141.133 26.4392 172.403 12.8436 219.309C-0.550138 265.519 3.43128 321.208 42.6494 340.617C81.8674 360.027 132.589 372.427 213.64 347.626C294.691 322.826 403.979 282.929 491.304 302.877C578.63 322.826 524.247 415.559 685.826 381.593" stroke="currentColor" stroke-dasharray="5 5"/>
    </g>
</svg>
